<?xml version="1.0" encoding="UTF-8"?>
<svg width="24px" height="24px" viewBox="0 0 24 24" version="1.1" xmlns="http://www.w3.org/2000/svg" xmlns:xlink="http://www.w3.org/1999/xlink">
    <title>Navigation-expand_more_24-240089</title>
    <g id="Export" stroke="none" stroke-width="1" fill="none" fill-rule="evenodd">
        <path d="M12,14.1428571 L18.375,7.71428571 C18.3769594,7.7123099 18.378927,7.71034229 18.3809028,7.70838294 C18.7721045,7.32044125 19.403725,7.32308402 19.7916667,7.71428571 L19.8017258,7.72442942 C20.1883136,8.11426582 20.1883136,8.74287703 19.8017258,9.13271344 L12.7100592,16.2839739 C12.708095,16.2859546 12.7061226,16.287927 12.704142,16.2898911 C12.3119872,16.678778 11.6788277,16.6761288 11.2899408,16.2839739 L4.19827416,9.13271344 C3.81168639,8.74287703 3.81168639,8.11426582 4.19827416,7.72442942 L4.20833333,7.71428571 C4.21029268,7.7123099 4.21226029,7.71034229 4.21423611,7.70838294 C4.60543781,7.32044125 5.23705832,7.32308402 5.625,7.71428571 L12,14.1428571 Z" id="Shape" fill="#182437"></path>
    </g>
</svg>